<?xml version="1.0" encoding="UTF-8" standalone="no"?>
<svg
   xmlns:dc="http://purl.org/dc/elements/1.1/"
   xmlns:cc="http://creativecommons.org/ns#"
   xmlns:rdf="http://www.w3.org/1999/02/22-rdf-syntax-ns#"
   xmlns:svg="http://www.w3.org/2000/svg"
   xmlns="http://www.w3.org/2000/svg"
   xmlns:sodipodi="http://sodipodi.sourceforge.net/DTD/sodipodi-0.dtd"
   xmlns:inkscape="http://www.inkscape.org/namespaces/inkscape"
   enable-background="new 0 0 24 24"
   height="24px"
   id="Layer_1"
   version="1.1"
   viewBox="0 0 24 24"
   width="24px"
   xml:space="preserve"
   inkscape:version="0.48.4 r"
   sodipodi:docname="icon.svg"
   inkscape:export-filename="/Users/yotaro/proj/context/icon.png"
   inkscape:export-xdpi="90"
   inkscape:export-ydpi="90"><metadata
     id="metadata9"><rdf:RDF><cc:Work
         rdf:about=""><dc:format>image/svg+xml</dc:format><dc:type
           rdf:resource="http://purl.org/dc/dcmitype/StillImage" /></cc:Work></rdf:RDF></metadata><defs
     id="defs7" /><sodipodi:namedview
     pagecolor="#ffffff"
     bordercolor="#666666"
     borderopacity="1"
     objecttolerance="10"
     gridtolerance="10"
     guidetolerance="10"
     inkscape:pageopacity="0"
     inkscape:pageshadow="2"
     inkscape:window-width="1200"
     inkscape:window-height="774"
     id="namedview5"
     showgrid="false"
     inkscape:zoom="13.906433"
     inkscape:cx="10.328823"
     inkscape:cy="9.1832049"
     inkscape:window-x="0"
     inkscape:window-y="0"
     inkscape:window-maximized="0"
     inkscape:current-layer="Layer_1" /><path
     d="M 4,4 4,20 20,20 20,13 23,9.962 23,21 c 0,1.105 -0.896,2 -2,2 L 3,23 C 1.896,23 1,22.105 1,21 L 1,3 C 1,1.896 1.896,1 3,1 l 11.01,0 -3.001,3 z"
     id="path3"
     inkscape:connector-curvature="0"
     sodipodi:nodetypes="cccccssssssccc"
     style="fill:#4d4d4d" /><path
     sodipodi:type="arc"
     style="fill:#4d4d4d;fill-rule:evenodd;stroke:#4d4d4d;stroke-width:1px;stroke-linecap:butt;stroke-linejoin:miter;stroke-opacity:1"
     id="path2986"
     sodipodi:cx="8.0338984"
     sodipodi:cy="11.491526"
     sodipodi:rx="1.4237288"
     sodipodi:ry="1.4237288"
     d="m 9.4576272,11.491526 a 1.4237288,1.4237288 0 1 1 -2.8474577,0 1.4237288,1.4237288 0 1 1 2.8474577,0 z"
     transform="translate(-1.0786375,0.28763666)" /><path
     transform="translate(4.0269132,0.28763666)"
     d="m 9.4576272,11.491526 a 1.4237288,1.4237288 0 1 1 -2.8474577,0 1.4237288,1.4237288 0 1 1 2.8474577,0 z"
     sodipodi:ry="1.4237288"
     sodipodi:rx="1.4237288"
     sodipodi:cy="11.491526"
     sodipodi:cx="8.0338984"
     id="path3824"
     style="fill:#4d4d4d;fill-rule:evenodd;stroke:#4d4d4d;stroke-width:1px;stroke-linecap:butt;stroke-linejoin:miter;stroke-opacity:1"
     sodipodi:type="arc" /><path
     sodipodi:type="arc"
     style="fill:#4d4d4d;fill-rule:evenodd;stroke:#4d4d4d;stroke-width:1px;stroke-linecap:butt;stroke-linejoin:miter;stroke-opacity:1"
     id="path3826"
     sodipodi:cx="8.0338984"
     sodipodi:cy="11.491526"
     sodipodi:rx="1.4237288"
     sodipodi:ry="1.4237288"
     d="m 9.4576272,11.491526 a 1.4237288,1.4237288 0 1 1 -2.8474577,0 1.4237288,1.4237288 0 1 1 2.8474577,0 z"
     transform="translate(9.1324639,0.28763666)" /></svg>